<?xml version="1.0" standalone="no"?>
<!DOCTYPE svg PUBLIC "-//W3C//DTD SVG 20010904//EN"
 "http://www.w3.org/TR/2001/REC-SVG-20010904/DTD/svg10.dtd">
<svg version="1.0" xmlns="http://www.w3.org/2000/svg"
 width="512.000000pt" height="512.000000pt" viewBox="0 0 512.000000 512.000000"
 preserveAspectRatio="xMidYMid meet">
<metadata>
Created by potrace 1.14, written by Peter Selinger 2001-2017
</metadata>
<g transform="translate(0.000000,512.000000) scale(0.100000,-0.100000)"
fill="#000000" stroke="none">
<path d="M1410 5113 c-254 -33 -529 -140 -737 -286 -113 -79 -301 -267 -380
-380 -121 -172 -218 -396 -265 -611 -19 -87 -22 -131 -22 -316 0 -185 3 -229
22 -316 47 -215 144 -439 265 -611 79 -113 267 -301 380 -380 217 -152 493
-257 760 -288 l57 -6 0 -89 c0 -757 452 -1425 1155 -1705 198 -79 368 -114
595 -122 512 -19 975 161 1339 520 370 364 557 837 538 1357 -8 213 -43 392
-111 570 -278 718 -949 1180 -1716 1180 l-89 0 -6 58 c-72 623 -486 1141
-1074 1346 -175 61 -272 77 -486 81 -104 2 -206 1 -225 -2z m395 -660 c293
-56 517 -255 533 -473 4 -66 3 -70 -26 -99 -24 -25 -39 -31 -72 -31 -59 0 -94
37 -103 109 -12 99 -79 178 -203 240 -105 52 -173 65 -334 65 -161 0 -229 -13
-334 -65 -81 -40 -140 -91 -173 -146 -22 -37 -28 -62 -31 -130 l-5 -83 369 0
c222 0 384 -4 406 -10 93 -26 106 -145 21 -189 -15 -7 -143 -11 -407 -11
l-386 0 0 -110 0 -110 386 0 c264 0 392 -4 407 -11 36 -18 57 -52 57 -90 0
-47 -30 -85 -78 -99 -22 -6 -183 -10 -404 -10 l-368 0 0 -62 c0 -35 5 -80 10
-100 29 -105 164 -204 338 -248 24 -6 87 -15 139 -19 91 -8 98 -10 125 -40 39
-43 38 -92 -1 -132 -16 -16 -40 -29 -53 -30 -318 -12 -617 137 -721 358 -28
60 -32 81 -35 171 l-4 102 -47 0 c-104 0 -161 39 -161 109 1 69 47 101 144
101 l66 0 0 110 0 110 -66 0 c-97 0 -143 32 -144 101 0 70 57 109 161 109 l47
0 4 103 c3 89 8 110 35 170 127 269 517 415 908 340z m1556 -1483 c32 -18 49
-64 49 -138 l0 -69 53 -7 c96 -13 171 -37 275 -88 172 -84 276 -207 304 -357
21 -112 -13 -171 -97 -171 -52 0 -92 35 -100 89 -19 121 -78 197 -199 256 -71
35 -170 65 -213 65 l-23 0 0 -319 0 -318 91 -17 c170 -31 290 -89 401 -194
316 -299 98 -740 -408 -825 l-79 -13 -5 -81 c-4 -68 -9 -86 -29 -107 -31 -33
-70 -41 -114 -22 -47 19 -60 46 -66 135 l-6 75 -77 13 c-289 48 -509 227 -549
446 -13 74 -5 110 33 142 66 55 168 9 168 -77 0 -136 172 -271 398 -312 l32
-5 0 322 0 323 -75 13 c-122 20 -250 70 -340 130 -60 41 -144 134 -174 194
-89 176 -52 358 103 505 105 99 245 165 409 193 l77 13 0 62 c0 72 10 104 41
133 25 23 86 28 120 11z"/>
<path d="M3134 2545 c-166 -37 -292 -118 -340 -220 -13 -27 -24 -66 -24 -85 0
-19 11 -57 24 -85 49 -103 175 -184 341 -219 l65 -14 0 319 c0 176 -1 319 -2
318 -2 -1 -31 -7 -64 -14z"/>
<path d="M3410 1385 l0 -316 38 7 c286 52 453 231 372 400 -42 86 -171 172
-315 209 -105 27 -95 59 -95 -300z"/>
<path d="M3475 4901 c-40 -17 -60 -51 -60 -102 0 -77 26 -96 153 -114 57 -8
130 -22 165 -31 76 -19 206 -79 284 -131 143 -94 290 -270 355 -424 30 -71 59
-159 53 -159 -2 0 -60 28 -129 62 -123 60 -127 61 -166 49 -72 -22 -103 -109
-59 -165 14 -18 106 -70 263 -148 260 -129 273 -133 324 -85 37 34 252 471
252 513 0 80 -110 134 -173 84 -15 -12 -47 -60 -71 -107 l-42 -85 -24 63
c-103 285 -322 531 -598 668 -166 83 -450 143 -527 112z"/>
<path d="M500 1489 c-46 -18 -62 -43 -176 -271 -131 -261 -135 -279 -79 -335
33 -33 39 -35 81 -30 59 6 78 25 128 126 l42 83 24 -63 c128 -354 430 -638
790 -742 104 -30 263 -52 311 -43 55 10 84 47 84 107 0 77 -26 96 -155 114
-57 9 -131 22 -164 31 -78 21 -209 82 -283 131 -143 94 -290 270 -355 424 -30
71 -59 159 -53 159 2 0 60 -28 129 -62 123 -60 127 -61 166 -49 72 21 103 109
59 165 -21 27 -446 247 -499 259 -14 3 -36 1 -50 -4z"/>
</g>
</svg>
