<svg width="43" height="43" viewBox="0 0 43 43" fill="none" xmlns="http://www.w3.org/2000/svg">
<path d="M12.1229 7.8779C11.9248 7.13882 11.4891 6.48526 10.883 6.01801C10.2769 5.55096 9.53398 5.29615 8.76876 5.29287L8.75967 5.29287C7.83998 5.29287 6.95796 5.65815 6.30764 6.30861C5.65733 6.95889 5.29199 7.84095 5.29199 8.76054L5.29199 8.76944C5.29534 9.53464 5.55022 10.2774 6.01735 10.8834C6.48448 11.4893 7.13795 11.925 7.87703 12.123C9.92909 12.6895 11.7387 13.9136 13.0282 15.6073C14.3178 17.3012 15.0161 19.3712 15.0161 21.5C15.0161 23.6288 14.3178 25.6989 13.0282 27.3927C11.7387 29.0865 9.92909 30.3105 7.87703 30.877C7.13801 31.0752 6.48464 31.5108 6.01762 32.1169C5.55059 32.723 5.29582 33.4658 5.29257 34.2309L5.29257 34.24C5.29257 35.1597 5.65791 36.0417 6.30823 36.692C6.95854 37.3423 7.84056 37.7077 8.76025 37.7077L8.76934 37.7077C9.53446 37.7043 10.2773 37.4494 10.8833 36.9823C11.4892 36.5152 11.9248 35.8617 12.1229 35.1226C12.6894 33.0706 13.9134 31.261 15.6072 29.9715C17.301 28.6819 19.371 27.9836 21.4999 27.9836C23.6287 27.9836 25.6987 28.6819 27.3926 29.9715C29.0865 31.261 30.3104 33.0706 30.8769 35.1226C31.075 35.8617 31.5105 36.5151 32.1165 36.9821C32.7225 37.4492 33.4652 37.7041 34.2302 37.7075L34.2393 37.7075C35.1591 37.7075 36.041 37.3421 36.6914 36.6918C37.3417 36.0415 37.707 35.1595 37.707 34.2398L37.707 34.2307C37.7037 33.4656 37.4487 32.7228 36.9816 32.1168C36.5144 31.5108 35.861 31.0752 35.1219 30.8772C33.0699 30.3107 31.2604 29.0866 29.9708 27.3929C28.6811 25.6991 27.9829 23.629 27.9829 21.5002C27.9829 19.3714 28.6811 17.3014 29.9708 15.6075C31.2604 13.9138 33.0699 12.6897 35.1219 12.1232C35.861 11.9252 36.5146 11.4895 36.9818 10.8836C37.4489 10.2776 37.7039 9.53464 37.7072 8.76944L37.7072 8.76034C37.7072 7.84075 37.3417 6.95869 36.6914 6.30842C36.0411 5.65814 35.1591 5.29267 34.2395 5.29267L34.2302 5.29267C33.465 5.29596 32.7223 5.55096 32.1163 6.01801C31.5103 6.48526 31.0748 7.13863 30.8767 7.87771C30.3102 9.92972 29.0863 11.7393 27.3924 13.0288C25.6985 14.3185 23.6285 15.0168 21.4997 15.0168C19.3708 15.0168 17.3008 14.3185 15.607 13.0288C13.9132 11.7393 12.6892 9.92972 12.1227 7.87771L12.1229 7.8779Z" fill="#D4088C"/>
<path d="M2.05414 38.4628C2.16508 38.3513 2.2385 38.2079 2.2642 38.0527C2.28989 37.8975 2.26658 37.7382 2.19751 37.5968C1.57469 36.3072 1.36725 34.8561 1.60379 33.4436C1.84032 32.0311 2.5092 30.7267 3.51817 29.7104C3.65935 29.5702 3.74077 29.3809 3.74532 29.182C3.74986 28.9832 3.67719 28.7903 3.54255 28.6439C3.47311 28.5712 3.38984 28.513 3.29761 28.4729C3.20538 28.4328 3.10607 28.4115 3.0055 28.4104C2.90493 28.4092 2.80516 28.4281 2.71202 28.4661C2.61888 28.504 2.53427 28.5602 2.46315 28.6313C1.22676 29.8708 0.40676 31.4643 0.116894 33.1908C-0.172972 34.9173 0.0816732 36.6912 0.8455 38.2665C0.898681 38.3737 0.976667 38.4667 1.07299 38.5378C1.16932 38.6089 1.2812 38.656 1.39936 38.6752C1.51753 38.6944 1.63857 38.6852 1.75244 38.6482C1.86632 38.6113 1.96975 38.5477 2.05414 38.4628Z" fill="#A31FA9"/>
<path d="M4.72761 42.1521C6.29778 42.915 8.066 43.1718 9.78832 42.8871C11.5107 42.6024 13.1022 41.7902 14.3434 40.5627C14.479 40.4336 14.5633 40.2597 14.5807 40.0733C14.5981 39.8868 14.5474 39.7004 14.438 39.5484C14.3729 39.4624 14.2902 39.3912 14.1953 39.3398C14.1004 39.2885 13.9956 39.258 13.888 39.2506C13.7804 39.2431 13.6724 39.2589 13.5713 39.2967C13.4703 39.3345 13.3785 39.3936 13.3023 39.4699C12.2857 40.484 10.9788 41.1569 9.56277 41.3953C8.14672 41.6337 6.69158 41.4258 5.39897 40.8004C5.25746 40.7308 5.09776 40.7071 4.94215 40.7326C4.78652 40.7581 4.64275 40.8315 4.53084 40.9426C4.44587 41.0271 4.38227 41.1306 4.34532 41.2446C4.30838 41.3585 4.29913 41.4797 4.31836 41.5979C4.33762 41.7162 4.38477 41.8281 4.45595 41.9245C4.52711 42.0209 4.62025 42.0989 4.72761 42.1521Z" fill="#6DE0F6"/>
<path d="M40.803 5.40296C41.426 6.69306 41.6334 8.14452 41.3964 9.55747C41.1596 10.9702 40.4901 12.2748 39.4806 13.2912C39.3401 13.4311 39.2591 13.6197 39.2546 13.8178C39.25 14.0161 39.3223 14.2083 39.4564 14.3543C39.5257 14.4275 39.6091 14.4859 39.7013 14.5263C39.7936 14.5666 39.8931 14.588 39.9939 14.5894C40.0947 14.5908 40.1947 14.5718 40.288 14.5339C40.3814 14.496 40.4662 14.4397 40.5374 14.3685C41.7737 13.129 42.5936 11.5356 42.8836 9.80899C43.1735 8.0826 42.9189 6.30862 42.155 4.73334C42.1018 4.62615 42.0238 4.53309 41.9275 4.46189C41.8311 4.39088 41.7193 4.34387 41.6011 4.32471C41.4829 4.30556 41.3618 4.31485 41.248 4.3518C41.134 4.38875 41.0307 4.45241 40.9464 4.53734C40.8355 4.64879 40.7622 4.79215 40.7364 4.94732C40.7107 5.10229 40.7339 5.26172 40.803 5.40296Z" fill="#6DE0F6"/>
<path d="M28.6454 3.54404C28.7915 3.67812 28.9836 3.75048 29.1819 3.74584C29.38 3.74139 29.5689 3.66032 29.7085 3.51986C30.7256 2.50952 32.0314 1.8399 33.4453 1.60367C34.8595 1.36724 36.3119 1.57581 37.6024 2.20035C37.7438 2.26961 37.9032 2.29302 38.0586 2.26748C38.214 2.24175 38.3575 2.16842 38.4691 2.05737C38.5541 1.97301 38.6175 1.8697 38.6547 1.75593C38.6916 1.64217 38.7009 1.52125 38.6818 1.40303C38.6626 1.28501 38.6158 1.17299 38.5448 1.07683C38.4738 0.980482 38.3809 0.902317 38.2737 0.849111C36.6981 0.0829455 34.9229 -0.17341 33.195 0.115643C31.4669 0.404697 29.8718 1.22484 28.6313 2.46212C28.5599 2.53332 28.5036 2.61826 28.4655 2.71171C28.4273 2.80516 28.4084 2.90518 28.4097 3.00598C28.4111 3.10698 28.4326 3.20643 28.4732 3.29891C28.5136 3.39139 28.5721 3.47458 28.6454 3.54404Z" fill="#A31FA9"/>
<path d="M5.40029 2.19899C6.69052 1.57503 8.14262 1.36704 9.55612 1.60366C10.9696 1.84029 12.2748 2.50991 13.2916 3.51985C13.4314 3.66032 13.6201 3.74138 13.8182 3.74583C14.0163 3.75048 14.2085 3.67812 14.3546 3.54404C14.4277 3.47477 14.4861 3.39138 14.5265 3.2991C14.5669 3.20681 14.5884 3.10736 14.5898 3.00656C14.5911 2.90576 14.5722 2.80593 14.5343 2.71248C14.4964 2.61922 14.4401 2.53428 14.3689 2.46308C13.1289 1.22619 11.5345 0.405853 9.80713 0.116413C8.07978 -0.173221 6.3051 0.0821661 4.72951 0.847171C4.6223 0.900377 4.52935 0.978542 4.45835 1.07489C4.38732 1.17124 4.34031 1.28307 4.32119 1.40129C4.30208 1.51931 4.31138 1.64042 4.34838 1.75419C4.38537 1.86815 4.44897 1.97146 4.5339 2.05582C4.64552 2.16668 4.78894 2.2402 4.94421 2.26593C5.09949 2.29147 5.2589 2.26806 5.40029 2.19899Z" fill="#6DE0F6"/>
<path d="M3.51964 13.2918C2.50956 12.275 1.83999 10.9698 1.60336 9.55631C1.36673 8.14277 1.57471 6.69073 2.19858 5.40044C2.26783 5.25901 2.29126 5.09958 2.26562 4.94441C2.24001 4.78905 2.16658 4.64569 2.05561 4.53405C1.97127 4.44911 1.86789 4.38546 1.75405 4.34851C1.64021 4.31155 1.5192 4.30227 1.40104 4.32142C1.28288 4.34038 1.17098 4.3874 1.07463 4.4584C0.978268 4.52941 0.900226 4.62247 0.846969 4.72965C0.0819461 6.30532 -0.173513 8.07989 0.11606 9.80725C0.405635 11.5346 1.22587 13.129 2.46287 14.369C2.53413 14.4402 2.61891 14.4965 2.71225 14.5344C2.8056 14.5724 2.90559 14.5913 3.00633 14.59C3.10709 14.5886 3.20656 14.5671 3.29887 14.5269C3.39119 14.4865 3.47448 14.428 3.54383 14.3549C3.67783 14.2088 3.75013 14.0167 3.74562 13.8184C3.74111 13.6203 3.66014 13.4316 3.51964 13.2918Z" fill="#D4088C"/>
<path d="M39.4808 29.7086C40.4907 30.7253 41.1603 32.0306 41.397 33.4441C41.6336 34.8576 41.4256 36.3097 40.8016 37.5999C40.7326 37.7413 40.7091 37.9007 40.7347 38.056C40.7604 38.2113 40.8339 38.3547 40.9448 38.4663C41.0292 38.5512 41.1325 38.6148 41.2464 38.6518C41.3602 38.6888 41.4813 38.6981 41.5993 38.679C41.7175 38.6599 41.8294 38.6129 41.9257 38.5418C42.0221 38.4708 42.1002 38.3779 42.1534 38.2707C42.9184 36.6951 43.1738 34.9204 42.8842 33.193C42.5948 31.4657 41.7744 29.8713 40.5375 28.6313C40.4663 28.5601 40.3814 28.5038 40.2881 28.4659C40.1949 28.428 40.0949 28.4091 39.9941 28.4104C39.8933 28.4118 39.7938 28.4333 39.7015 28.4737C39.6092 28.5141 39.5258 28.5725 39.4566 28.6456C39.3225 28.7916 39.2501 28.9838 39.2546 29.182C39.2592 29.3801 39.3401 29.5689 39.4808 29.7086Z" fill="#6DE0F6"/>
<path d="M37.5998 40.801C36.3095 41.425 34.8574 41.633 33.4439 41.3964C32.0304 41.1598 30.7252 40.4903 29.7085 39.4802C29.5686 39.3397 29.3799 39.2587 29.1818 39.2542C28.9835 39.2497 28.7914 39.322 28.6453 39.456C28.5722 39.5253 28.5137 39.6086 28.4733 39.7009C28.4331 39.7933 28.4116 39.8927 28.4102 39.9935C28.4089 40.0942 28.4278 40.1942 28.4658 40.2876C28.5037 40.3809 28.56 40.4657 28.6312 40.5369C29.8712 41.7739 31.4656 42.5942 33.193 42.8838C34.9203 43.1733 36.6949 42.9179 38.2705 42.1528C38.3777 42.0996 38.4708 42.0215 38.5418 41.9252C38.6128 41.8288 38.6598 41.7169 38.6788 41.5988C38.6979 41.4806 38.6887 41.3596 38.6517 41.2458C38.6147 41.1319 38.5511 41.0286 38.4662 40.9442C38.3545 40.8332 38.2112 40.7598 38.0558 40.7342C37.9006 40.7085 37.7412 40.7319 37.5998 40.801Z" fill="#A31FA9"/>
</svg>
