<svg width="50" height="50" viewBox="0 0 50 50" fill="none" xmlns="http://www.w3.org/2000/svg">
<circle cx="25" cy="25" r="25" fill="#6DE0F6"/>
<path fill-rule="evenodd" clip-rule="evenodd" d="M13.7071 6.29289C13.3166 5.90237 12.6834 5.90237 12.2929 6.29289C11.9024 6.68342 11.9024 7.31658 12.2929 7.70711L14.5858 10H12.6667C11.1638 10 9.72243 10.597 8.65973 11.6597C7.59702 12.7224 7 14.1638 7 15.6667V18C7 18.5523 7.44772 19 8 19C8.55228 19 9 18.5523 9 18V15.6667C9 14.6942 9.38631 13.7616 10.0739 13.0739C10.7616 12.3863 11.6942 12 12.6667 12H14.5858L12.2929 14.2929C11.9024 14.6834 11.9024 15.3166 12.2929 15.7071C12.6834 16.0976 13.3166 16.0976 13.7071 15.7071L17.7071 11.7071C18.0976 11.3166 18.0976 10.6834 17.7071 10.2929L13.7071 6.29289ZM45 28C45.5523 28 46 28.4477 46 29V31.3333C46 32.8362 45.403 34.2776 44.3403 35.3403C43.2776 36.403 41.8362 37 40.3333 37H38.4142L40.7071 39.2929C41.0976 39.6834 41.0976 40.3166 40.7071 40.7071C40.3166 41.0976 39.6834 41.0976 39.2929 40.7071L35.2929 36.7071C34.9024 36.3166 34.9024 35.6834 35.2929 35.2929L39.2929 31.2929C39.6834 30.9024 40.3166 30.9024 40.7071 31.2929C41.0976 31.6834 41.0976 32.3166 40.7071 32.7071L38.4142 35H40.3333C41.3058 35 42.2384 34.6137 42.9261 33.9261C43.6137 33.2384 44 32.3058 44 31.3333V29C44 28.4477 44.4477 28 45 28ZM31.9904 11.757C30.4795 11.379 28.8944 11.4186 27.4043 11.8715C25.9141 12.3245 24.5751 13.1737 23.5301 14.3286C22.6954 15.2512 22.0733 16.3411 21.7029 17.5211C27.4943 17.8703 32.1297 22.5057 32.4789 28.2971C33.6589 27.9267 34.7488 27.3046 35.6714 26.4699C36.8263 25.4249 37.6755 24.0859 38.1285 22.5957C38.5814 21.1056 38.621 19.5205 38.243 18.0096C37.865 16.4987 37.0836 15.119 35.9823 14.0177C34.881 12.9164 33.5013 12.135 31.9904 11.757ZM32.2375 31.4546C34.2665 31.0378 36.1475 30.0849 37.6842 28.6944C39.2421 27.2848 40.3878 25.4784 40.9988 23.4682C41.6098 21.458 41.6632 19.3196 41.1533 17.2815C40.6433 15.2433 39.5893 13.382 38.1036 11.8964C36.618 10.4107 34.7567 9.35666 32.7185 8.84673C30.6804 8.3368 28.542 8.39019 26.5318 9.00119C24.5216 9.61219 22.7152 10.7578 21.3056 12.3157C19.9151 13.8525 18.9622 15.7335 18.5454 17.7625C13.3735 18.887 9.5 23.4912 9.5 29C9.5 35.3513 14.6487 40.5 21 40.5C26.5088 40.5 31.113 36.6265 32.2375 31.4546ZM12.5 29C12.5 24.3056 16.3056 20.5 21 20.5C25.6944 20.5 29.5 24.3056 29.5 29C29.5 33.6944 25.6944 37.5 21 37.5C16.3056 37.5 12.5 33.6944 12.5 29Z" fill="url(#paint0_radial_403_7023)"/>
<defs>
<radialGradient id="paint0_radial_403_7023" cx="0" cy="0" r="1" gradientUnits="userSpaceOnUse" gradientTransform="translate(14.837 24.7981) scale(33.7565 40.3923)">
<stop offset="0.01" stop-color="#2C35A2"/>
<stop offset="0.16" stop-color="#252C88"/>
<stop offset="0.4" stop-color="#1B2167"/>
<stop offset="0.62" stop-color="#15194F"/>
<stop offset="0.83" stop-color="#101540"/>
<stop offset="1" stop-color="#0F133B"/>
</radialGradient>
</defs>
</svg>
